<mxfile host="drawio-plugin" modified="2024-03-18T17:45:15.994Z" agent="5.0 (Macintosh; Intel Mac OS X 10_15_7) AppleWebKit/537.36 (KHTML, like Gecko) Chrome/111.0.0.0 Safari/537.36" etag="oQ2AIur9L5EdL3WbEYAU" version="20.5.3" type="embed"><diagram id="23iRSUPoRavnBvh4doch" name="Page-1"><mxGraphModel dx="531" dy="615" grid="0" gridSize="10" guides="1" tooltips="1" connect="1" arrows="1" fold="1" page="1" pageScale="1" pageWidth="827" pageHeight="1169" math="0" shadow="0"><root><mxCell id="0"/><mxCell id="1" parent="0"/><mxCell id="4" value="" style="rounded=0;whiteSpace=wrap;html=1;fontFamily=Courier New;fontSize=16;dashed=1;" vertex="1" parent="1"><mxGeometry x="80" y="160" width="220" height="60" as="geometry"/></mxCell><mxCell id="2" value="&lt;font face=&quot;Courier New&quot; style=&quot;font-size: 16px;&quot;&gt;TCP Header&lt;/font&gt;" style="text;html=1;align=center;verticalAlign=middle;resizable=0;points=[];autosize=1;strokeColor=none;fillColor=#d5e8d4;" vertex="1" parent="1"><mxGeometry x="100" y="175" width="120" height="30" as="geometry"/></mxCell><mxCell id="3" value="Data" style="text;html=1;align=center;verticalAlign=middle;resizable=0;points=[];autosize=1;strokeColor=none;fillColor=#dae8fc;fontSize=16;fontFamily=Courier New;" vertex="1" parent="1"><mxGeometry x="220" y="175" width="60" height="30" as="geometry"/></mxCell><mxCell id="8" value="TCP Packet" style="text;html=1;align=center;verticalAlign=middle;resizable=0;points=[];autosize=1;strokeColor=none;fillColor=none;fontSize=16;fontFamily=Courier New;fontStyle=1;labelBackgroundColor=none;" vertex="1" parent="1"><mxGeometry x="133" y="129" width="114" height="31" as="geometry"/></mxCell></root></mxGraphModel></diagram></mxfile>